<?xml version="1.0" encoding="UTF-8" standalone="no"?><!DOCTYPE svg PUBLIC "-//W3C//DTD SVG 1.1//EN" "http://www.w3.org/Graphics/SVG/1.1/DTD/svg11.dtd"><svg width="100%" height="100%" viewBox="0 0 24 24" version="1.1" xmlns="http://www.w3.org/2000/svg" xmlns:xlink="http://www.w3.org/1999/xlink" xml:space="preserve" xmlns:serif="http://www.serif.com/" style="fill-rule:evenodd;clip-rule:evenodd;stroke-linejoin:round;stroke-miterlimit:1.41421;"><rect x="0" y="0" width="24" height="24" style="fill:none;"/><path d="M18,4l0,12l-12,0l0,-12l12,0m0,-2l-12,0l-2,2l0,12l2,2l12,0l2,-2l0,-12l-2,-2Z" style="fill-rule:nonzero;"/><path d="M10,12l1,2l3,-3l3,4l-10,0l3,-3Z" style="fill-rule:nonzero;"/><path d="M0,8.06l2,-2l0,13.94l9,0l0,2l-9,0l-2,-2l0,-11.94Z" style="fill-rule:nonzero;"/><path d="M24,8.121l0,11.879l-2,2l-9,0l0,-2l9,0l0,-13.879l2,2Z" style="fill-rule:nonzero;"/></svg>